<svg width="32" height="32" viewBox="0 0 32 32" fill="none" xmlns="http://www.w3.org/2000/svg">
  <!-- Purple Rose design matching Tier2Flower from homepage -->
  <g transform="translate(16, 16)">
    <!-- Outer petals (larger, lighter purple) -->
    <ellipse cx="-6" cy="-4" rx="4" ry="5" fill="#C084FC" transform="rotate(-30 -6 -4)"/>
    <ellipse cx="6" cy="-4" rx="4" ry="5" fill="#C084FC" transform="rotate(30 6 -4)"/>
    <ellipse cx="-7" cy="2" rx="4" ry="5" fill="#C084FC" transform="rotate(-60 -7 2)"/>
    <ellipse cx="7" cy="2" rx="4" ry="5" fill="#C084FC" transform="rotate(60 7 2)"/>
    <ellipse cx="0" cy="-7" rx="4" ry="5" fill="#C084FC"/>
    <ellipse cx="-2" cy="6" rx="4" ry="5" fill="#C084FC" transform="rotate(-90 -2 6)"/>
    <ellipse cx="2" cy="6" rx="4" ry="5" fill="#C084FC" transform="rotate(90 2 6)"/>
    
    <!-- Middle layer petals (medium purple) -->
    <ellipse cx="-4" cy="-3" rx="3" ry="4" fill="#A855F7" transform="rotate(-20 -4 -3)"/>
    <ellipse cx="4" cy="-3" rx="3" ry="4" fill="#A855F7" transform="rotate(20 4 -3)"/>
    <ellipse cx="-5" cy="1" rx="3" ry="4" fill="#A855F7" transform="rotate(-50 -5 1)"/>
    <ellipse cx="5" cy="1" rx="3" ry="4" fill="#A855F7" transform="rotate(50 5 1)"/>
    <ellipse cx="0" cy="-5" rx="3" ry="4" fill="#A855F7"/>
    <ellipse cx="0" cy="4" rx="3" ry="4" fill="#A855F7" transform="rotate(180)"/>
    
    <!-- Inner petals (darker purple) -->
    <ellipse cx="-2.5" cy="-2" rx="2.5" ry="3.5" fill="#9333EA" transform="rotate(-15 -2.5 -2)"/>
    <ellipse cx="2.5" cy="-2" rx="2.5" ry="3.5" fill="#9333EA" transform="rotate(15 2.5 -2)"/>
    <ellipse cx="-3" cy="1" rx="2.5" ry="3.5" fill="#9333EA" transform="rotate(-40 -3 1)"/>
    <ellipse cx="3" cy="1" rx="2.5" ry="3.5" fill="#9333EA" transform="rotate(40 3 1)"/>
    <ellipse cx="0" cy="-3" rx="2.5" ry="3.5" fill="#9333EA"/>
    
    <!-- Center of rose (deep purple) -->
    <circle cx="0" cy="0" r="2.5" fill="#7C3AED"/>
    <circle cx="0" cy="0" r="1.8" fill="#6B21A8"/>
    
    <!-- Highlight for depth -->
    <circle cx="-0.8" cy="-0.8" r="0.8" fill="#D8B4FE" opacity="0.4"/>
  </g>
</svg>
