<svg width="32" height="32" viewBox="0 0 32 32" fill="none" xmlns="http://www.w3.org/2000/svg">
  <!-- Sunflower design matching Tier3Flower from homepage -->
  <!-- Golden petals in circular arrangement -->
  <g transform="translate(16, 16)">
    <!-- Center circle (brown) -->
    <circle cx="0" cy="0" r="4" fill="#8B4513"/>
    
    <!-- 8 golden petals arranged in circle -->
    <ellipse cx="0" cy="-8" rx="3" ry="5" fill="#FFD700" transform="rotate(0)"/>
    <ellipse cx="0" cy="-8" rx="3" ry="5" fill="#FFD700" transform="rotate(45)"/>
    <ellipse cx="0" cy="-8" rx="3" ry="5" fill="#FFD700" transform="rotate(90)"/>
    <ellipse cx="0" cy="-8" rx="3" ry="5" fill="#FFD700" transform="rotate(135)"/>
    <ellipse cx="0" cy="-8" rx="3" ry="5" fill="#FFD700" transform="rotate(180)"/>
    <ellipse cx="0" cy="-8" rx="3" ry="5" fill="#FFD700" transform="rotate(225)"/>
    <ellipse cx="0" cy="-8" rx="3" ry="5" fill="#FFD700" transform="rotate(270)"/>
    <ellipse cx="0" cy="-8" rx="3" ry="5" fill="#FFD700" transform="rotate(315)"/>
    
    <!-- Inner petals for depth -->
    <ellipse cx="0" cy="-6" rx="2" ry="3.5" fill="#FFA500" transform="rotate(22.5)"/>
    <ellipse cx="0" cy="-6" rx="2" ry="3.5" fill="#FFA500" transform="rotate(67.5)"/>
    <ellipse cx="0" cy="-6" rx="2" ry="3.5" fill="#FFA500" transform="rotate(112.5)"/>
    <ellipse cx="0" cy="-6" rx="2" ry="3.5" fill="#FFA500" transform="rotate(157.5)"/>
    <ellipse cx="0" cy="-6" rx="2" ry="3.5" fill="#FFA500" transform="rotate(202.5)"/>
    <ellipse cx="0" cy="-6" rx="2" ry="3.5" fill="#FFA500" transform="rotate(247.5)"/>
    <ellipse cx="0" cy="-6" rx="2" ry="3.5" fill="#FFA500" transform="rotate(292.5)"/>
    <ellipse cx="0" cy="-6" rx="2" ry="3.5" fill="#FFA500" transform="rotate(337.5)"/>
    
    <!-- Center detail dots -->
    <circle cx="0" cy="0" r="3" fill="#654321" opacity="0.3"/>
    <circle cx="-1" cy="-1" r="0.8" fill="#FFF" opacity="0.4"/>
  </g>
</svg>
