<svg xmlns="http://www.w3.org/2000/svg" viewBox="0 0 16 16" width="16" height="16">
  <defs>
    <linearGradient id="brainGradient16" x1="0%" y1="0%" x2="100%" y2="100%">
      <stop offset="0%" style="stop-color:#3B82F6;stop-opacity:1" />
      <stop offset="100%" style="stop-color:#1E40AF;stop-opacity:1" />
    </linearGradient>
  </defs>
  <path d="M8 2c-.8 0-1.4.2-2 0.6-0.6.4-1.1.8-1.4 1.4-.3.6-.6 1.2-.6 2 0 .6.1 1.1.3 1.6.2.5.5.9.8 1.3.3.4.7.7 1.2.9.5.2 1 .3 1.4.3s.9-.1 1.4-.3c.5-.2 1-.5 1.2-.9.3-.4.5-.8.8-1.3.2-.5.3-1 .3-1.6 0-.8-.2-1.4-.6-2-.4-.6-.8-1.1-1.4-1.4C9.4 2.2 8.8 2 8 2z" fill="url(#brainGradient16)"/>
  <path d="M6 4c-.2.1-.4.3-.6.6-.2.3-.2.5-.2.8 0 .2 0 .3.1.4.1.1.1.2.2.2.1 0 .2.1.3.1.1 0 .3 0 .3-.1.1 0 .2-.1.2-.2 0-.1.1-.2.1-.4 0-.3-.1-.5-.2-.8-.1-.3-.3-.5-.6-.6z" fill="#FFFFFF" opacity="0.8"/>
  <path d="M10 4c.2.1.4.3.6.6.2.3.2.5.2.8 0 .2 0 .3-.1.4-.1.1-.1.2-.2.2-.1 0-.2.1-.3.1-.1 0-.3 0-.3-.1-.1 0-.2-.1-.2-.2 0-.1-.1-.2-.1-.4 0-.3.1-.5.2-.8.1-.3.3-.5.6-.6z" fill="#FFFFFF" opacity="0.8"/>
</svg>
