<svg xmlns="http://www.w3.org/2000/svg" viewBox="0 0 32 32" width="32" height="32">
  <defs>
    <linearGradient id="brainGradient" x1="0%" y1="0%" x2="100%" y2="100%">
      <stop offset="0%" style="stop-color:#3B82F6;stop-opacity:1" />
      <stop offset="100%" style="stop-color:#1E40AF;stop-opacity:1" />
    </linearGradient>
  </defs>

  <!-- Brain outline -->
  <path d="M16 4c-1.5 0-2.8.4-4 1.1-1.2.7-2.2 1.7-2.9 2.9-.7 1.2-1.1 2.5-1.1 4 0 1.1.2 2.2.6 3.2.4 1 .9 1.9 1.6 2.7.7.8 1.5 1.4 2.4 1.9.9.5 1.9.7 2.9.7s2-.2 2.9-.7c.9-.5 1.7-1.1 2.4-1.9.7-.8 1.2-1.7 1.6-2.7.4-1 .6-2.1.6-3.2 0-1.5-.4-2.8-1.1-4-.7-1.2-1.7-2.2-2.9-2.9C18.8 4.4 17.5 4 16 4z" fill="url(#brainGradient)"/>

  <!-- Brain folds/details -->
  <path d="M12 8c-.5.3-.9.7-1.2 1.2-.3.5-.5 1-.5 1.6 0 .3.1.6.2.8.1.2.3.4.5.5.2.1.4.2.7.2.3 0 .5-.1.7-.2.2-.1.4-.3.5-.5.1-.2.2-.5.2-.8 0-.6-.2-1.1-.5-1.6-.3-.5-.7-.9-1.2-1.2z" fill="#FFFFFF" opacity="0.8"/>
  <path d="M20 8c.5.3.9.7 1.2 1.2.3.5.5 1 .5 1.6 0 .3-.1.6-.2.8-.1.2-.3.4-.5.5-.2.1-.4.2-.7.2-.3 0-.5-.1-.7-.2-.2-.1-.4-.3-.5-.5-.1-.2-.2-.5-.2-.8 0-.6.2-1.1.5-1.6.3-.5.7-.9 1.2-1.2z" fill="#FFFFFF" opacity="0.8"/>

  <!-- Neural connections -->
  <circle cx="8" cy="16" r="1.5" fill="#60A5FA" opacity="0.6"/>
  <circle cx="24" cy="16" r="1.5" fill="#60A5FA" opacity="0.6"/>
  <circle cx="16" cy="24" r="1.5" fill="#60A5FA" opacity="0.6"/>

  <!-- Connection lines -->
  <path d="M9.5 16.5 14.5 22.5" stroke="#93C5FD" stroke-width="1" opacity="0.4"/>
  <path d="M22.5 16.5 17.5 22.5" stroke="#93C5FD" stroke-width="1" opacity="0.4"/>
</svg>
