<svg xmlns="http://www.w3.org/2000/svg" viewBox="0 0 1200 630" width="1200" height="630">
  <defs>
    <linearGradient id="bgGradient" x1="0%" y1="0%" x2="100%" y2="100%">
      <stop offset="0%" style="stop-color:#FFFBEB;stop-opacity:1" />
      <stop offset="50%" style="stop-color:#FEF3C7;stop-opacity:1" />
      <stop offset="100%" style="stop-color:#FDE68A;stop-opacity:1" />
    </linearGradient>
    <linearGradient id="petalGradient" x1="0%" y1="0%" x2="100%" y2="100%">
      <stop offset="0%" style="stop-color:#FBBF24;stop-opacity:1" />
      <stop offset="100%" style="stop-color:#F59E0B;stop-opacity:1" />
    </linearGradient>
    <radialGradient id="centerGradient" cx="50%" cy="50%" r="50%">
      <stop offset="0%" style="stop-color:#92400E;stop-opacity:1" />
      <stop offset="100%" style="stop-color:#78350F;stop-opacity:1" />
    </radialGradient>
  </defs>

  <rect width="1200" height="630" fill="url(#bgGradient)"/>

  <circle cx="100" cy="100" r="150" fill="#FDE68A" opacity="0.3"/>
  <circle cx="1100" cy="530" r="200" fill="#FBBF24" opacity="0.2"/>
  <circle cx="1150" cy="100" r="100" fill="#FCD34D" opacity="0.25"/>

  <g transform="translate(180, 315)">
    <g>
      <ellipse cx="0" cy="-95" rx="22" ry="50" fill="url(#petalGradient)" transform="rotate(0)"/>
      <ellipse cx="0" cy="-95" rx="22" ry="50" fill="url(#petalGradient)" transform="rotate(22.5)"/>
      <ellipse cx="0" cy="-95" rx="22" ry="50" fill="url(#petalGradient)" transform="rotate(45)"/>
      <ellipse cx="0" cy="-95" rx="22" ry="50" fill="url(#petalGradient)" transform="rotate(67.5)"/>
      <ellipse cx="0" cy="-95" rx="22" ry="50" fill="url(#petalGradient)" transform="rotate(90)"/>
      <ellipse cx="0" cy="-95" rx="22" ry="50" fill="url(#petalGradient)" transform="rotate(112.5)"/>
      <ellipse cx="0" cy="-95" rx="22" ry="50" fill="url(#petalGradient)" transform="rotate(135)"/>
      <ellipse cx="0" cy="-95" rx="22" ry="50" fill="url(#petalGradient)" transform="rotate(157.5)"/>
      <ellipse cx="0" cy="-95" rx="22" ry="50" fill="url(#petalGradient)" transform="rotate(180)"/>
      <ellipse cx="0" cy="-95" rx="22" ry="50" fill="url(#petalGradient)" transform="rotate(202.5)"/>
      <ellipse cx="0" cy="-95" rx="22" ry="50" fill="url(#petalGradient)" transform="rotate(225)"/>
      <ellipse cx="0" cy="-95" rx="22" ry="50" fill="url(#petalGradient)" transform="rotate(247.5)"/>
      <ellipse cx="0" cy="-95" rx="22" ry="50" fill="url(#petalGradient)" transform="rotate(270)"/>
      <ellipse cx="0" cy="-95" rx="22" ry="50" fill="url(#petalGradient)" transform="rotate(292.5)"/>
      <ellipse cx="0" cy="-95" rx="22" ry="50" fill="url(#petalGradient)" transform="rotate(315)"/>
      <ellipse cx="0" cy="-95" rx="22" ry="50" fill="url(#petalGradient)" transform="rotate(337.5)"/>
    </g>
    <g opacity="0.9">
      <ellipse cx="0" cy="-70" rx="18" ry="38" fill="#FCD34D" transform="rotate(11.25)"/>
      <ellipse cx="0" cy="-70" rx="18" ry="38" fill="#FCD34D" transform="rotate(33.75)"/>
      <ellipse cx="0" cy="-70" rx="18" ry="38" fill="#FCD34D" transform="rotate(56.25)"/>
      <ellipse cx="0" cy="-70" rx="18" ry="38" fill="#FCD34D" transform="rotate(78.75)"/>
      <ellipse cx="0" cy="-70" rx="18" ry="38" fill="#FCD34D" transform="rotate(101.25)"/>
      <ellipse cx="0" cy="-70" rx="18" ry="38" fill="#FCD34D" transform="rotate(123.75)"/>
      <ellipse cx="0" cy="-70" rx="18" ry="38" fill="#FCD34D" transform="rotate(146.25)"/>
      <ellipse cx="0" cy="-70" rx="18" ry="38" fill="#FCD34D" transform="rotate(168.75)"/>
      <ellipse cx="0" cy="-70" rx="18" ry="38" fill="#FCD34D" transform="rotate(191.25)"/>
      <ellipse cx="0" cy="-70" rx="18" ry="38" fill="#FCD34D" transform="rotate(213.75)"/>
      <ellipse cx="0" cy="-70" rx="18" ry="38" fill="#FCD34D" transform="rotate(236.25)"/>
      <ellipse cx="0" cy="-70" rx="18" ry="38" fill="#FCD34D" transform="rotate(258.75)"/>
      <ellipse cx="0" cy="-70" rx="18" ry="38" fill="#FCD34D" transform="rotate(281.25)"/>
      <ellipse cx="0" cy="-70" rx="18" ry="38" fill="#FCD34D" transform="rotate(303.75)"/>
      <ellipse cx="0" cy="-70" rx="18" ry="38" fill="#FCD34D" transform="rotate(326.25)"/>
      <ellipse cx="0" cy="-70" rx="18" ry="38" fill="#FCD34D" transform="rotate(348.75)"/>
    </g>
    <circle cx="0" cy="0" r="50" fill="url(#centerGradient)"/>
    <circle cx="-15" cy="-15" r="4" fill="#A16207" opacity="0.6"/>
    <circle cx="10" cy="-10" r="3" fill="#A16207" opacity="0.5"/>
    <circle cx="-5" cy="10" r="4" fill="#A16207" opacity="0.6"/>
    <circle cx="15" cy="5" r="3" fill="#A16207" opacity="0.5"/>
    <circle cx="0" cy="-5" r="3" fill="#A16207" opacity="0.5"/>
  </g>

  <g transform="translate(1050, 120) scale(0.4)" opacity="0.7">
    <g>
      <ellipse cx="0" cy="-95" rx="22" ry="50" fill="#FBBF24" transform="rotate(0)"/>
      <ellipse cx="0" cy="-95" rx="22" ry="50" fill="#FBBF24" transform="rotate(45)"/>
      <ellipse cx="0" cy="-95" rx="22" ry="50" fill="#FBBF24" transform="rotate(90)"/>
      <ellipse cx="0" cy="-95" rx="22" ry="50" fill="#FBBF24" transform="rotate(135)"/>
      <ellipse cx="0" cy="-95" rx="22" ry="50" fill="#FBBF24" transform="rotate(180)"/>
      <ellipse cx="0" cy="-95" rx="22" ry="50" fill="#FBBF24" transform="rotate(225)"/>
      <ellipse cx="0" cy="-95" rx="22" ry="50" fill="#FBBF24" transform="rotate(270)"/>
      <ellipse cx="0" cy="-95" rx="22" ry="50" fill="#FBBF24" transform="rotate(315)"/>
    </g>
    <circle cx="0" cy="0" r="50" fill="#92400E"/>
  </g>

  <text x="420" y="160" font-family="Georgia, serif" font-size="56" font-weight="bold" fill="#78350F">Life Psychology</text>
  <text x="420" y="220" font-family="Georgia, serif" font-size="56" font-weight="bold" fill="#78350F">Australia</text>
  <text x="420" y="280" font-family="Arial, sans-serif" font-size="24" fill="#92400E">Nurturing Growth and Wellbeing</text>

  <rect x="420" y="310" width="500" height="3" rx="1.5" fill="#FBBF24"/>

  <circle cx="435" cy="358" r="6" fill="#FBBF24"/>
  <text x="455" y="365" font-family="Arial, sans-serif" font-size="22" fill="#78350F">Anxiety and Depression Therapy</text>
  
  <circle cx="435" cy="398" r="6" fill="#FBBF24"/>
  <text x="455" y="405" font-family="Arial, sans-serif" font-size="22" fill="#78350F">Couples Counselling</text>
  
  <circle cx="435" cy="438" r="6" fill="#FBBF24"/>
  <text x="455" y="445" font-family="Arial, sans-serif" font-size="22" fill="#78350F">Neurodiversity Support</text>
  
  <circle cx="435" cy="478" r="6" fill="#FBBF24"/>
  <text x="455" y="485" font-family="Arial, sans-serif" font-size="22" fill="#78350F">NDIS Psychology Services</text>

  <text x="420" y="545" font-family="Arial, sans-serif" font-size="20" fill="#92400E">Newcastle and Greater Hunter Region</text>
  <text x="420" y="580" font-family="Arial, sans-serif" font-size="18" font-weight="bold" fill="#B45309">www.life-psychology.com.au</text>
</svg>
